# xmcd
#
# Track frame offsets:
#	150
#	14120
#	27845
#	40278
#	57727
#	68788
#	80728
#	96108
#	109324
#	152047
#	167079
#
# Disc length: 2490 seconds
#
# Revision: 0
# Processed by: cddbd v1.5PL3 Copyright (c) Steve Scherf et al.
# Submitted via: dBpowerAMP V4.0
#
DISCID=9709b80b
DTITLE=El Vagón - Demasiado Simple
DYEAR=1997
DGENRE=Blues
TTITLE0=Demasiado simple
TTITLE1=Jujuy
TTITLE2=El malo
TTITLE3=Otra noche igual
TTITLE4=Apache 62
TTITLE5=Fuera de la ley
TTITLE6=Muy, muy temprano
TTITLE7=Todos los caballos blancos
TTITLE8=Menos mal
TTITLE9=Podrido blues
TTITLE10=Seco y disparando
EXTD=Grabado en 1997 - Edición 2002
EXTT0=
EXTT1=
EXTT2=
EXTT3=
EXTT4=
EXTT5=
EXTT6=
EXTT7=
EXTT8=
EXTT9=
EXTT10=
PLAYORDER=
